<svg width="74" height="82" viewBox="0 0 74 82" fill="none" xmlns="http://www.w3.org/2000/svg">
<g filter="url(#filter0_dd_30_208)">
<rect x="4" y="8" width="66" height="66" rx="8.79912" fill="#EFEFEF"/>
<g filter="url(#filter1_d_30_208)">
<path d="M52.0036 31.8028C57.0831 40.089 54.4835 50.9241 46.1973 56.0037C37.9111 61.0832 27.076 58.4837 21.9964 50.1974C16.9169 41.9112 19.5164 31.0761 27.8027 25.9965C36.0889 20.917 46.924 23.5165 52.0036 31.8028ZM27.6063 46.7585C30.7866 51.9465 37.5704 53.574 42.7584 50.3938C47.9463 47.2135 49.5739 40.4297 46.3936 35.2417C43.2134 30.0538 36.4296 28.4262 31.2416 31.6065C26.0536 34.7867 24.4261 41.5705 27.6063 46.7585Z" fill="url(#paint0_linear_30_208)"/>
</g>
</g>
<defs>
<filter id="filter0_dd_30_208" x="0.480354" y="0.960708" width="73.0393" height="80.0786" filterUnits="userSpaceOnUse" color-interpolation-filters="sRGB">
<feFlood flood-opacity="0" result="BackgroundImageFix"/>
<feColorMatrix in="SourceAlpha" type="matrix" values="0 0 0 0 0 0 0 0 0 0 0 0 0 0 0 0 0 0 127 0" result="hardAlpha"/>
<feOffset dy="3.51965"/>
<feGaussianBlur stdDeviation="1.75982"/>
<feComposite in2="hardAlpha" operator="out"/>
<feColorMatrix type="matrix" values="0 0 0 0 0 0 0 0 0 0 0 0 0 0 0 0 0 0 0.1 0"/>
<feBlend mode="normal" in2="BackgroundImageFix" result="effect1_dropShadow_30_208"/>
<feColorMatrix in="SourceAlpha" type="matrix" values="0 0 0 0 0 0 0 0 0 0 0 0 0 0 0 0 0 0 127 0" result="hardAlpha"/>
<feOffset dy="-3.51965"/>
<feGaussianBlur stdDeviation="1.75982"/>
<feComposite in2="hardAlpha" operator="out"/>
<feColorMatrix type="matrix" values="0 0 0 0 0 0 0 0 0 0 0 0 0 0 0 0 0 0 0.1 0"/>
<feBlend mode="normal" in2="effect1_dropShadow_30_208" result="effect2_dropShadow_30_208"/>
<feBlend mode="normal" in="SourceGraphic" in2="effect2_dropShadow_30_208" result="shape"/>
</filter>
<filter id="filter1_d_30_208" x="15.8796" y="23.3994" width="42.2407" height="42.2407" filterUnits="userSpaceOnUse" color-interpolation-filters="sRGB">
<feFlood flood-opacity="0" result="BackgroundImageFix"/>
<feColorMatrix in="SourceAlpha" type="matrix" values="0 0 0 0 0 0 0 0 0 0 0 0 0 0 0 0 0 0 127 0" result="hardAlpha"/>
<feOffset dy="3.51965"/>
<feGaussianBlur stdDeviation="1.75982"/>
<feComposite in2="hardAlpha" operator="out"/>
<feColorMatrix type="matrix" values="0 0 0 0 0 0 0 0 0 0 0 0 0 0 0 0 0 0 0.1 0"/>
<feBlend mode="normal" in2="BackgroundImageFix" result="effect1_dropShadow_30_208"/>
<feBlend mode="normal" in="SourceGraphic" in2="effect1_dropShadow_30_208" result="shape"/>
</filter>
<linearGradient id="paint0_linear_30_208" x1="27.8027" y1="25.9965" x2="46.1973" y2="56.0037" gradientUnits="userSpaceOnUse">
<stop offset="0.203333" stop-color="white"/>
<stop offset="0.653333" stop-color="#EFEFEF"/>
</linearGradient>
</defs>
</svg>
